<?xml version="1.0" encoding="UTF-8" standalone="no"?>
<!-- Created with Inkscape (http://www.inkscape.org/) -->

<svg
   width="196.18958mm"
   height="196.20508mm"
   viewBox="0 0 196.18958 196.20508"
   version="1.1"
   id="svg1"
   xml:space="preserve"
   xmlns="http://www.w3.org/2000/svg"
   xmlns:svg="http://www.w3.org/2000/svg"><defs
     id="defs1" /><g
     id="layer1"
     transform="translate(-6.944795,-50.328712)"><g
       style="fill:#000000"
       id="g1"
       transform="matrix(0.20670573,0,0,0.20670573,-2.2742802,45.822526)"><g
         id="SVGRepo_bgCarrier"
         stroke-width="0" /><g
         id="SVGRepo_tracerCarrier"
         stroke-linecap="round"
         stroke-linejoin="round" /><g
         id="SVGRepo_iconCarrier"><path
           d="m 492.5,917.7 c -247,0 -447.9,-200.9 -447.9,-447.9 0,-247 200.9,-448 447.9,-448 247,0 447.9,200.9 447.9,447.9 0,247 -200.9,448 -447.9,448 z m 0,-810.6 c -200,0 -362.6,162.7 -362.6,362.6 0,199.9 162.7,362.6 362.6,362.6 199.9,0 362.6,-162.7 362.6,-362.6 0,-199.9 -162.6,-362.6 -362.6,-362.6 z"
           fill="#2e294e"
           id="path1" /><path
           d="m 951.1,971 c -10.9,0 -21.8,-4.2 -30.2,-12.5 l -96,-96 c -16.7,-16.7 -16.7,-43.7 0,-60.3 16.6,-16.7 43.7,-16.7 60.3,0 l 96,96 c 16.7,16.7 16.7,43.7 0,60.3 C 973,966.9 962,971 951.1,971 Z"
           fill="#1b998b"
           id="path2" /></g></g><g
       style="fill:none;stroke:#2e294e"
       id="g2"
       transform="matrix(5.0797636,0,0,4.6797984,41.690406,83.993001)"><g
         id="SVGRepo_bgCarrier-2"
         stroke-width="0" /><g
         id="SVGRepo_tracerCarrier-7"
         stroke-linecap="round"
         stroke-linejoin="round" /><g
         id="SVGRepo_iconCarrier-9"><circle
           cx="11"
           cy="6"
           r="4"
           stroke="#2e294e"
           stroke-width="1.5"
           id="circle1" /><path
           d="m 17,10.3 c 0.5207,0.4686 0.8126,0.7314 1.3333,1.2 L 21,8.5"
           stroke="#2e294e"
           stroke-width="1.5"
           stroke-linecap="round"
           stroke-linejoin="round"
           id="path1-5" /><path
           d="M 18.9975,18 C 19,17.8358 19,17.669 19,17.5 19,15.0147 15.4183,13 11,13 c -4.41828,0 -8,2.0147 -8,4.5 0,2.4853 0,4.5 8,4.5 2.231,0 3.8398,-0.1567 5,-0.4366"
           stroke="#2e294e"
           stroke-width="1.5"
           stroke-linecap="round"
           id="path2-4" /></g></g></g></svg>
